PathFileType	4	(X/Y/Z)	C:/Users/beibeiliu/ov580/test_trc/User1\sequence.14_training_dense_right.trc
DataRate	CameraRate	NumFrames	NumMarkers	Units	OrigDataRate	OrigDataStartFrame	OrigNumFrames
120	120	14	19	mm	120	67	267
Frame#	Time	ThumbCMC			ThumbMCP			ThumbIP			ThumbTip			IndexMCP			IndexPIP			IndexTip			MiddleMCP			MiddlePIP			MiddleTip			RingMCP			RingPIP			RingTip			PinkyMCP			PinkyPIP			PinkyTip			BackHand1			BackHand2			BackHand3	
		X0	Y0	Z0	X1	Y1	Z1	X2	Y2	Z2	X3	Y3	Z3	X4	Y4	Z4	X5	Y5	Z5	X6	Y6	Z6	X7	Y7	Z7	X8	Y8	Z8	X9	Y9	Z9	X10	Y10	Z10	X11	Y11	Z11	X12	Y12	Z12	X13	Y13	Z13	X14	Y14	Z14	X15	Y15	Z15	X16	Y16	Z16	X17	Y17	Z17	X18	Y18	Z18	
66	0.55	186.676	120.283	54.8737	173.652	134.46	23.6337	170.387	137.385	-7.71949	158.683	135.281	-28.2341	193.081	81.0116	-22.0067	180.49	89.1194	-48.3483	156.164	116.686	-52.5407	183.288	54.9452	-21.5696	174.023	58.0589	-54.6126	151.824	79.7163	-76.5848	164.379	43.7302	-18.5847	154.889	48.5545	-49.9506	141.692	66.6182	-65.3421	141.483	42.4507	0.337179	136.534	43.3171	-22.9809	126.959	59.2895	-48.9489	165.668	48.6972	40.6643	162.872	55.8821	75.2695	191.551	75.7948	56.7549	
67	0.558333	181.243	125.47	53.9877	165.325	136.764	21.7047	159.861	136.246	-7.5683	149.095	139.074	-28.9895	195.035	85.5098	-22.1217	180.771	91.6532	-50.2917	153.029	109.441	-56.7832	190.8	59.9686	-26.5333	179.954	58.2461	-54.8314	157.154	73.0613	-77.2382	171.993	44.9684	-13.8894	166.175	45.7594	-47.0415	147.51	60.5091	-66.5081	147.356	38.574	0.56333	144.265	41.4303	-29.0088	134.38	52.3872	-50.0174	172.22	53.2739	42.4305	167.451	55.1063	77.1749	195.775	82.6132	53.2613	
68	0.566667	170.865	127.188	53.1424	153.551	134.62	22.9907	147.53	140.979	-7.84463	138.212	137.733	-30.7415	197.265	93.1119	-19.475	184.05	90.9251	-48.8724	158.15	105.357	-62.2738	197.745	62.2492	-25.842	189.347	61.6451	-54.569	165.524	70.9608	-79.6616	183.334	46.3085	-15.9028	179.649	47.9888	-47.7235	159.037	58.7409	-71.3704	161.068	37.2894	-2.1489	158.354	36.921	-25.1619	146.275	49.3899	-53.236	180.688	57.6314	41.959	174.756	57.2677	72.7346	193.875	85.381	53.2143	
69	0.575	161.892	120.946	49.5979	142.277	127.693	21.3208	136.732	131.356	-10.3713	126.613	128.753	-29.6308	198.507	103.271	-23.7313	187.345	98.9917	-50.7595	161.359	101.426	-66.5809	206.266	73.8638	-23.5618	201.197	71.8607	-55.4753	174.853	69.7641	-80.9441	195.824	53.2845	-14.9209	193.835	53.8892	-47.1005	171.538	53.467	-71.3806	177.656	38.7664	-5.31605	173.475	31.642	-27.139	162.21	40.8076	-52.4681	188.892	57.5007	38.9215	180.934	62.452	75.0157	190.848	94.8964	56.8099	
70	0.583333	146.866	112.574	49.8873	128.138	112.227	16.684	119.419	117.569	-11.2	112.94	112.266	-34.3693	192.223	107.996	-24.9301	184.229	105.539	-52.2947	158.575	99.6223	-72.9241	209.313	82.5687	-22.4503	207.329	84.9716	-54.0424	186.603	74.4469	-81.3482	204.971	64.5398	-16.6918	205.438	62.6846	-48.5897	186.622	60.3421	-73.2019	194.275	41.6868	-7.20367	191.332	36.5536	-32.813	182.631	42.8716	-54.5628	194.99	62.2613	36.6045	186.686	62.1005	69.2718	188.152	96.9677	54.3787	
71	0.591667	138.939	106.236	46.1232	117.817	104.579	16.4072	114.511	102.421	-13.8427	105.603	99.0848	-38.9671	185.443	113.703	-23.4837	179.643	104.731	-54.2295	161.096	97.61	-72.7143	207.066	94.2271	-26.4201	206.387	91.8165	-55.582	185.63	80.8413	-86.4899	208.549	70.3986	-19.394	208.814	64.5596	-49.2592	189.669	60.4719	-76.4288	200.16	43.3678	-5.55053	201.541	42.3973	-30.3398	191.845	42.4017	-54.5112	198.105	66.4908	39.8277	185.886	63.8366	73.2727	178.098	97.2229	55.3744	
72	0.6	134.006	101.301	47.6378	116.318	98.4358	11.7662	111.636	97.5158	-15.788	104.878	91.8006	-39.5324	182.463	112.876	-21.4135	177.472	106.36	-56.3605	158.953	92.244	-75.2144	204.838	94.9666	-25.9755	204.91	89.9853	-58.3376	187.467	81.2983	-84.7052	208.508	73.5293	-17.9768	207.259	71.16	-52.7422	191.527	57.9697	-75.3262	202.702	47.1634	-5.72298	202.269	43.307	-34.7107	194.232	39.9596	-60.6626	197.536	68.9602	38.8407	189.121	63.7622	67.73	175.781	100.05	50.0695	
73	0.608333	133.223	99.614	42.6912	111.543	96.0967	12.0922	110.079	92.8362	-15.8951	105.032	88.3983	-39.6934	179.897	115.267	-23.7005	174.49	111.678	-55.1448	159.053	94.8247	-74.3672	202.959	98.0198	-26.1371	202.986	93.475	-56.0001	186.474	81.5889	-85.108	207.733	76.1157	-18.3766	209.552	69.4154	-53.5951	191.755	59.4177	-75.547	204.656	46.8832	-7.06493	205.967	41.1554	-34.0523	195.906	41.7132	-62.2891	195.457	71.5984	35.545	185.737	64.6623	69.6026	172.044	98.1455	52.2464	
74	0.616667	131.213	95.3169	43.1104	115.83	90.6586	8.67194	111.722	89.4192	-16.6341	109.795	83.4341	-42.0149	177.703	114.656	-23.5917	172.499	107.942	-56.4743	155.997	87.0904	-71.1919	201.821	99.1806	-26.307	202.093	92.8753	-58.5528	187.655	79.8959	-84.0227	209.346	76.771	-17.2297	208.574	70.5425	-54.95	194.897	61.5618	-73.3277	206.961	49.316	-6.70271	207.173	45.7905	-35.9436	195.04	47.3496	-60.6595	198.284	70.0212	35.7592	185.458	63.8731	70.6903	173.508	98.4455	49.7499	
75	0.625	129.82	92.8623	42.6704	113.952	87.2902	10.4131	112.046	86.1702	-17.1038	111.844	81.7999	-46.4568	174.448	112.99	-25.7435	167.196	103.056	-54.43	146.66	83.6714	-67.504	199.074	102.218	-22.0287	198.857	97.6526	-58.5193	182.373	79.2671	-85.6952	211.513	78.5477	-20.5687	210.669	76.812	-48.8382	195.244	62.7632	-72.3729	209.154	52.1414	-4.23075	211.736	49.5516	-29.9	199.242	49.094	-58.8697	198.788	70.7821	37.9727	185.542	63.2001	70.7464	171.503	99.581	51.9762	
76	0.633333	128.165	88.7844	43.9814	116.401	84.5278	5.20774	116.144	81.9326	-20.1379	113.485	77.4272	-46.7583	172.199	111.004	-22.5212	160.095	101.941	-53.0141	140.223	71.9862	-61.8288	197.83	104.153	-23.5009	197.698	97.9967	-57.5677	181.081	82.1927	-81.8442	209.01	82.7104	-16.2223	210.678	78.0269	-51.7264	196.307	65.0369	-71.7355	210.111	55.9748	-4.20739	213.409	53.5351	-29.3792	200.291	53.9209	-58.3074	194.541	72.0441	42.3091	189.739	64.297	70.3642	168.536	94.9346	56.5782	
77	0.641667	126.051	87.1951	42.2361	116.932	77.9192	7.81511	115.681	78.7723	-20.2955	115.523	72.9413	-47.3045	164.24	112.594	-28.0749	155.424	96.0653	-52.751	140.053	67.2355	-58.5137	196.046	103.913	-24.9145	192.347	101.171	-56.2679	180.41	78.78	-82.0913	212.657	83.0597	-20.0707	208.986	82.5694	-48.5921	196.409	69.2161	-70.8956	213.812	54.0196	-4.09232	215.273	52.248	-31.4775	201.72	49.8863	-58.7438	195.42	73.775	39.308	188.195	63.4651	68.9989	168.84	93.2422	53.4211	
78	0.65	124.294	84.4579	43.1112	113.199	75.6379	8.35909	115.076	77.1606	-25.7638	120.5	69.7139	-48.1915	164.251	108.465	-24.1293	152.839	94.9379	-53.0588	139.485	63.9721	-57.3729	193.76	103.596	-21.836	194.243	97.2707	-56.6012	179.348	78.6869	-81.7612	211.076	83.0476	-18.3883	211.822	79.2044	-51.0014	196.401	65.5866	-71.7363	214.87	55.9886	-7.17438	217.534	52.9805	-29.4805	204.789	53.6792	-56.5237	195.641	75.5732	41.3795	184.825	66.9358	72.9336	167.182	93.7451	52.3163	
79	0.658333	125.02	82.1889	40.3779	113.922	74.3778	5.87667	116.233	70.9537	-19.3694	120.268	66.9754	-46.03	161.266	107.907	-28.8584	155.18	88.3906	-54.3729	136.893	63.5664	-57.0838	192.395	103.747	-23.2537	192.422	97.7663	-56.2724	176.213	75.59	-84.7387	208.237	83.8574	-15.181	210.318	80.9288	-50.8227	196.249	63.6074	-73.118	216.459	55.3898	-6.03942	214.441	56.818	-29.7672	206.518	50.9456	-58.6229	195.075	74.3901	42.5271	185.242	67.3094	70.6304	164.123	92.1829	53.2389	
